<svg class="canvas" viewBox="0 0 1920 1080" preserveAspectRatio="none meet" xmlns="http://www.w3.org/2000/svg" version="1.1" xmlns:xlink="http://www.w3.org/1999/xlink" xmlns:svgjs="http://svgjs.com/svgjs"
>
    <rect width="1920" height="1080" fill="hsl(148, 65%, 15%)"></rect>
    <defs>
        <linearGradient x1="0.5" y1="0" x2="0" y2="1" id="SvgjsLinearGradient1203">
            <stop stop-color="#288a2f" offset="0"></stop>
            <stop stop-color="#061314" offset="0.1"></stop>
        </linearGradient>
        <linearGradient x1="0.5" y1="0" x2="0" y2="1" id="SvgjsLinearGradient1204">
            <stop stop-color="#288a2f" offset="0"></stop>
            <stop stop-color="#061314" offset="0.22857142857142856"></stop>
        </linearGradient>
        <linearGradient x1="0.5" y1="0" x2="0" y2="1" id="SvgjsLinearGradient1205">
            <stop stop-color="#498a28" offset="0"></stop>
            <stop stop-color="#06140f" offset="0.3571428571428571"></stop>
        </linearGradient>
        <linearGradient x1="0.5" y1="0" x2="0" y2="1" id="SvgjsLinearGradient1206">
            <stop stop-color="#d0f2c0" offset="0"></stop>
            <stop stop-color="#42d7a5" offset="0.48571428571428565"></stop>
        </linearGradient>
        <linearGradient x1="0.5" y1="0" x2="0" y2="1" id="SvgjsLinearGradient1207">
            <stop stop-color="#c0f2cd" offset="0"></stop>
            <stop stop-color="#42afd7" offset="0.6142857142857142"></stop>
        </linearGradient>
        <linearGradient x1="0.5" y1="0" x2="0" y2="1" id="SvgjsLinearGradient1208">
            <stop stop-color="#c0f2c3" offset="0"></stop>
            <stop stop-color="#42cdd7" offset="0.7428571428571429"></stop>
        </linearGradient>
        <linearGradient x1="0.5" y1="0" x2="0" y2="1" id="SvgjsLinearGradient1209">
            <stop stop-color="#c0f2cd" offset="0"></stop>
            <stop stop-color="#42afd7" offset="0.8714285714285713"></stop>
        </linearGradient>
    </defs>
    <path d="M0,-571.5266904731463C49.583051891632095,-547.4189479884553,194.37095201920152,-456.8230575388306,297.4983113497926,-426.8802355650005C400.6256706803836,-396.93741359117035,503.0315642144173,-418.57008496866484,618.7641559835463,-391.8697586301656C734.4967477526753,-365.1694322916664,876.0562305503421,-294.9018668061194,991.8938619645667,-266.678277534005C1107.7314933787914,-238.45468826189065,1215.509075840128,-251.45505309206217,1313.789944468894,-222.52822299747936C1412.07081309766,-193.60139290289655,1480.5440644819791,-124.95088572056358,1581.5790737371635,-93.11729696650808C1682.614082992348,-61.28370821245258,1863.5965122895273,-41.791791555373294,1920,-31.526690473146335L 1920 1080 L 0 1080 Z" fill="url(#SvgjsLinearGradient1203)"></path>
    <path d="M0,-445.76254270957367C37.43624039532988,-441.62893283149486,125.73690507647045,-446.57283638146043,224.6174423719793,-420.96088344110086C323.49797966748815,-395.3489305007413,497.8832124179525,-337.4904480554363,593.2832237730531,-292.0908250674161C688.6832351281537,-246.69120207939594,716.4535871958667,-181.07257824507874,797.017510502583,-148.5631455129798C877.5814338092994,-116.05371278088083,989.4461915594401,-116.24746037897243,1076.666763613351,-97.0342286748223C1163.8873356672616,-77.82099697067217,1217.8098207147282,-60.65029471315677,1320.340942826048,-33.28375528807898C1422.8720649373677,-5.917215863001186,1591.9103200856114,43.5305200649412,1691.85349628127,67.16500787564448C1791.7966724769287,90.79949568634775,1881.975582713545,101.63014429272461,1920,108.52317157614064L 1920 1080 L 0 1080 Z" fill="url(#SvgjsLinearGradient1204)"></path>
    <path d="M0,-330.1588977378614C56.49789547967719,-314.45478105847286,230.06034141293225,-271.5436878646696,338.9873728780631,-235.93419766153013C447.914404343194,-200.32470745839066,556.1215859803434,-141.4248419577708,653.5621887907853,-116.50195651902459C751.0027916012272,-91.57907108027837,818.939839448069,-116.62055223644047,923.6309897407143,-86.39688502905281C1028.3221400333596,-56.17321782166515,1173.846387453438,28.95534139472649,1281.7090905466569,64.84004672530136C1389.5717936398758,100.72475205587624,1464.4253900578033,99.9825996030188,1570.8072083000272,128.91134695439644C1677.1890265422512,157.84009430577407,1861.801201383338,220.16233352037207,1920,238.4125308335672L 1920 1080 L 0 1080 Z" fill="url(#SvgjsLinearGradient1205)"></path>
    <path d="M0,-127.82536787645755C54.12183334656819,-118.92142300976822,223.54114537135325,-100.54932361587042,324.7310000794091,-74.40169867632157C425.920854787465,-48.254073736772725,506.0416205946495,-12.965798016964804,607.1391282483353,29.060381760835504C708.2366359020211,71.0865615386358,824.2232596679237,146.7525503072272,931.316046001524,177.75537999048026C1038.4088323351243,208.75820967373332,1142.266142345559,184.56907222422728,1249.695846249937,215.0773598603538C1357.1255501543149,245.5856474964803,1464.1769104694474,320.81270328718415,1575.8942694277912,360.8051058072394C1687.611628386135,400.7975083272946,1862.6490449046319,439.32733011844437,1920,455.0317749806853L 1920 1080 L 0 1080 Z" fill="url(#SvgjsLinearGradient1206)"></path>
    <path d="M0,-8.033242316113757C60.96172020704347,16.452218364069072,234.6273921045654,99.76256329763527,365.7703212422608,138.87952176498322C496.91325037995625,177.99648023233118,663.0163989477636,189.40345938688634,786.8575748261726,226.66850848797392C910.6987507045816,263.93355758906154,993.6296127788207,329.8441403271695,1108.8173765127149,362.4698163715088C1224.005140246609,395.09549241584807,1342.78705331499,384.6492650114704,1477.9841572295377,422.4225647540095C1613.1812611440853,460.1958644965486,1846.3306928715897,561.3284398146211,1920,589.1096148267435L 1920 1080 L 0 1080 Z" fill="url(#SvgjsLinearGradient1207)"></path>
    <path d="M0,112.61631274175573C38.2318458507454,128.55858782024697,150.20361206308706,177.60549945352983,229.3910751044724,208.2699632127031C308.57853814585775,238.93442697187635,388.4878580338212,276.495183430182,475.1247782483121,296.6030952967953C561.761698462803,316.71100716340857,663.5315554513135,313.54671307964446,749.2125963914177,328.9174344123827C834.893637331522,344.28815574512095,913.7946773970169,360.67967554994107,989.2110238889375,388.8274232932248C1064.627370380858,416.9751710365085,1127.3190111737306,469.85897314705994,1201.7106753429412,497.8039208720852C1276.1023395121517,525.7488685971105,1357.8858757934165,527.9159332951205,1435.5610089042011,556.4971096433765C1513.2361420149857,585.0782859916325,1587.0216421583484,641.3663498737963,1667.7614740076483,669.2909789616214C1748.5013058569482,697.2156080494465,1877.9602456679413,714.9192333022096,1920,724.0448841703272L 1920 1080 L 0 1080 Z" fill="url(#SvgjsLinearGradient1208)"></path>
    <path d="M0,249.89226844632887C56.47176223624471,262.44593273224723,233.84176880459518,298.47561558672345,338.83057341746826,325.21425416183905C443.81937803034134,351.95289273695465,531.2649563823636,376.7036142245541,629.9328276772385,410.32409989702234C728.6006989721134,443.9445855694906,830.1671966078211,485.0539380949698,930.8378011867173,526.9371681966485C1031.5084057656136,568.8203982983272,1114.5928029192107,623.0631554379694,1233.9564551506157,661.6234805070943C1353.3201073820208,700.1838055762192,1532.679123766917,722.6352730024779,1647.0197145751476,758.299118611398C1761.3603053833783,793.962964220318,1874.5032857625247,856.0553149024119,1920,875.6065541606147L 1920 1080 L 0 1080 Z" fill="url(#SvgjsLinearGradient1209)"></path>
</svg>